<svg width="20" height="21" viewBox="0 0 20 21" fill="none" xmlns="http://www.w3.org/2000/svg">
<g id="icon/verified">
<path id="Vector" d="M9.99996 3C8.99996 3 7.99996 3.5 7.49996 4.41667C7.00096 4.28891 6.47748 4.29179 5.97992 4.42502C5.48235 4.55825 5.02748 4.81735 4.65909 5.17737C4.2907 5.53738 4.02122 5.98618 3.87658 6.48055C3.73195 6.97492 3.71704 7.4982 3.83329 8C2.99996 8.5 2.41663 9.5 2.41663 10.5C2.41663 11.5 2.99996 12.5 3.83329 13C3.58329 14 3.83329 15.0833 4.66663 15.8333C5.33329 16.5 6.41663 16.8333 7.41663 16.6667C7.91663 17.5 8.91663 18 9.91663 18C10.9166 18 11.9166 17.5 12.4166 16.5833C13.4166 16.8333 14.5 16.5833 15.25 15.75C15.9166 15.0833 16.25 14.0833 16.0833 13C16.9166 12.5 17.4166 11.5 17.4166 10.5C17.4166 9.5 16.9166 8.5 16 8C16.25 7 16 5.91667 15.1666 5.16667C14.8103 4.81494 14.3738 4.55526 13.8946 4.41006C13.4155 4.26487 12.9082 4.23854 12.4166 4.33333C11.9166 3.5 10.9166 3 9.91663 3H9.99996Z" fill="#D1BF3D" stroke="black" stroke-linecap="round" stroke-linejoin="round"/>
<path id="Vector_2" d="M7.5 10.5L9.16667 12.1667L12.5 8.83337" stroke="black" stroke-linecap="round" stroke-linejoin="round"/>
</g>
</svg>
