<svg width="24" height="24" viewBox="0 0 24 24" fill="none" xmlns="http://www.w3.org/2000/svg">
<g id="Group 1">
<circle id="Ellipse 1" cx="12" cy="12" r="12" fill="#4AA3DF"/>
<g id="Vector">
<path d="M13.5591 13.8169C13.6235 13.594 13.7189 13.375 13.8268 13.1694C13.9702 12.894 14.147 12.6303 14.3046 12.3594C14.4424 12.124 14.5751 11.8857 14.7174 11.6362C14.3627 11.5337 14.0221 11.4357 13.6854 11.3366C13.5984 11.451 13.5188 11.5463 13.4544 11.6499C13.2708 11.9496 13.0912 12.2482 12.9179 12.5535C12.7642 12.8233 12.5988 13.0965 12.4796 13.3819C12.2983 13.8087 12.1746 14.2572 12.1114 14.7224C12.0572 15.0999 12.007 15.4763 12.0607 15.8568C12.0731 15.9597 12.0844 16.0586 12.0974 16.1783C12.3313 16.2474 12.5742 16.3181 12.8323 16.3972L12.9814 16.4395C13.0012 16.3444 13.0159 16.2764 13.0294 16.2043C13.0746 15.9146 13.1005 15.6176 13.1689 15.334C13.2886 14.827 13.4264 14.3233 13.5732 13.8213L13.5591 13.8169Z" fill="white"/>
<path d="M11.5871 13.881C11.6606 13.6598 11.7481 13.4431 11.8266 13.2247C12.0768 12.5311 12.4264 11.8857 12.8116 11.2599C12.8438 11.208 12.863 11.1557 12.8872 11.1061C12.7997 11.0248 12.7488 11.0565 12.6901 11.1202C12.4681 11.3756 12.3168 11.683 12.1569 11.9759C11.9954 12.2778 11.8604 12.5976 11.7435 12.9207C11.5764 13.3817 11.4103 13.8467 11.2855 14.3211C11.1709 14.7713 10.9964 15.2216 11.0795 15.7044C11.0851 15.7241 11.0456 15.7653 11.0326 15.7647C11.0015 15.7609 10.9659 15.7413 10.9541 15.7149C10.9394 15.6936 10.9541 15.6553 10.9501 15.6266C10.9405 15.1909 11.0512 14.7716 11.1641 14.3602C11.3262 13.7772 11.5346 13.2064 11.752 12.6372C11.9705 12.072 12.2671 11.5398 12.5963 11.0322C12.602 11.022 12.5946 11.0114 12.5958 10.9855C12.5494 10.9733 12.4992 10.9622 12.4399 10.9494C12.3162 11.1297 12.193 11.2971 12.0863 11.4767C11.957 11.697 11.8389 11.9268 11.7248 12.1554C11.6305 12.3485 11.5323 12.5428 11.4611 12.7421C11.3346 13.1063 11.2081 13.4705 11.1149 13.8464C11.0071 14.2606 10.9275 14.6837 10.8518 15.1056C10.8123 15.3256 10.7891 15.5579 10.8846 15.786C10.9936 15.8228 11.1168 15.864 11.2501 15.9109C11.2693 15.7095 11.2823 15.5312 11.3043 15.3546C11.3624 14.8567 11.4194 14.355 11.5821 13.8782L11.5871 13.881Z" fill="white"/>
<path d="M11.8272 14.076C11.9639 13.5982 12.1288 13.1293 12.3654 12.6866C12.5072 12.4202 12.6439 12.1511 12.7918 11.8914C12.8653 11.7596 12.9579 11.6351 13.0466 11.5117C13.12 11.4097 13.1934 11.3077 13.2764 11.1944C13.1917 11.1677 13.1262 11.1482 13.0646 11.1275C12.7969 11.3577 12.6986 11.6712 12.5371 11.9433C12.3389 12.2813 12.1802 12.6377 12.0265 12.9969L12.0119 13.0352C11.843 13.4158 11.6894 13.8048 11.6013 14.2133C11.4776 14.7811 11.376 15.351 11.402 15.9481C11.4828 15.976 11.5585 16.0011 11.6585 16.0362C11.6607 15.8951 11.6528 15.7781 11.663 15.6645C11.6912 15.3158 11.7245 14.9699 11.7617 14.6228C11.7815 14.4383 11.7883 14.2533 11.8402 14.0765L11.8272 14.076Z" fill="white"/>
<path d="M11.325 12.8195C11.4887 12.2871 11.7864 11.8184 12.0609 11.3435C12.1467 11.1954 12.2388 11.054 12.3314 10.8997C12.2484 10.8639 12.1834 10.8315 12.1167 10.8081C11.8219 10.7054 11.5214 10.6129 11.2361 10.4991C11.057 10.427 10.9141 10.4511 10.7848 10.5819C10.7085 10.6591 10.6255 10.7426 10.5758 10.8378C10.39 11.1892 10.1443 11.511 10.0184 11.8921C9.9331 12.1465 9.86307 12.4093 9.76368 12.6593C9.61741 13.0291 9.57564 13.4201 9.47851 13.7971C9.37574 14.2141 9.36222 14.6438 9.34757 15.0695C9.34532 15.2702 9.40182 15.3477 9.59726 15.4022C9.88139 15.4824 10.1655 15.5625 10.4468 15.6478C10.5406 15.6762 10.6276 15.7108 10.7366 15.7476C10.7366 15.5986 10.7202 15.467 10.74 15.3421C10.8015 14.9157 10.8501 14.4888 10.9489 14.0729C11.0466 13.6531 11.1973 13.2394 11.3261 12.8235L11.325 12.8195Z" fill="white"/>
<path d="M12.0656 14.429C12.1164 14.1292 12.1972 13.8292 12.3084 13.546C12.4259 13.2398 12.5897 12.9458 12.7456 12.6541C12.9602 12.239 13.1963 11.8391 13.4781 11.4643C13.5126 11.4203 13.5346 11.3629 13.5628 11.3122L13.5589 11.3134C13.3996 11.2357 13.3945 11.2329 13.3024 11.3445C13.155 11.5316 13.0116 11.7176 12.898 11.9333C12.6044 12.4903 12.261 13.0232 12.0667 13.6283C11.9797 13.8917 11.9018 14.1568 11.873 14.429C11.8363 14.7632 11.7957 15.0984 11.7641 15.4353C11.7454 15.6536 11.7319 15.8746 11.8071 16.0915C11.8472 16.097 11.8884 16.1064 11.9466 16.1152C11.9483 16.0466 11.9522 15.9859 11.9522 15.9263C11.9533 15.811 11.9364 15.6924 11.9465 15.5788C11.9815 15.194 12.0035 14.8088 12.0696 14.4279L12.0656 14.429Z" fill="white"/>
<path d="M16.0473 14.0003C16.1094 13.8888 16.1817 13.7829 16.2478 13.6702C16.4523 13.3092 16.6906 12.9767 17.0346 12.7289C17.0803 12.6944 17.13 12.6589 17.169 12.6306L17.1826 12.6182C16.8493 12.5011 16.516 12.384 16.1697 12.2663C16.1183 12.3109 16.0528 12.351 16.0088 12.4062C15.819 12.6396 15.619 12.8673 15.4507 13.1158C15.1559 13.5497 14.8814 13.9947 14.7318 14.5018C14.6555 14.7579 14.5804 15.0179 14.5014 15.279C14.3783 15.6848 14.328 16.091 14.3891 16.512C14.4026 16.589 14.4122 16.6671 14.4241 16.7531C14.3405 16.7601 14.2784 16.7524 14.2812 16.6579C14.2874 16.3964 14.2388 16.1379 14.2817 15.8701C14.3303 15.5922 14.3878 15.3159 14.4635 15.0429C14.5347 14.7841 14.6137 14.5229 14.7131 14.273C14.8097 14.0281 14.9306 13.7932 15.0565 13.5612C15.2175 13.2722 15.3835 12.9861 15.6117 12.7375C15.7648 12.57 15.9026 12.3942 16.0494 12.22C15.928 12.1101 15.9048 12.104 15.8071 12.1959C15.7433 12.2569 15.6879 12.3324 15.6354 12.4028C15.5563 12.5149 15.4874 12.6327 15.4021 12.7381L15.3897 12.7544C15.1886 13.008 14.9836 13.2628 14.8317 13.5534C14.6442 13.9138 14.4273 14.2614 14.3409 14.6609C14.2765 14.9434 14.215 15.2208 14.1687 15.5066C14.0992 15.9353 14.0597 16.3639 14.1298 16.8164C14.5168 16.9266 14.8958 17.0391 15.2844 17.1403C15.3771 17.1648 15.4691 17.1724 15.533 17.2605C15.5437 17.2532 15.5544 17.2458 15.5691 17.2373C15.5454 17.1249 15.5149 17.0188 15.4991 16.9041C15.4431 16.5455 15.3951 16.1846 15.4498 15.824C15.5481 15.1827 15.7271 14.5692 16.0513 13.9992L16.0473 14.0003Z" fill="white"/>
<path d="M14.303 14.4844C14.3708 14.2436 14.4951 14.0205 14.6001 13.7902C14.7882 13.3871 15.0344 13.0225 15.3276 12.6871C15.4919 12.4994 15.6173 12.2803 15.7658 12.0673C15.6879 12.0343 15.6252 12.0098 15.5715 11.9869C15.3253 12.3216 15.0756 12.6445 14.8401 12.9719C14.6181 13.2869 14.4289 13.6265 14.3137 14.0003C14.2036 14.3768 14.0613 14.7455 13.9551 15.1209C13.8716 15.4259 13.753 15.7282 13.7558 16.051C13.7581 16.1781 13.7694 16.3068 13.7768 16.4367C13.7807 16.4952 13.8044 16.5777 13.7208 16.5847C13.6293 16.594 13.6485 16.5118 13.6525 16.4511C13.6576 16.3049 13.6575 16.1559 13.6717 16.0113C13.6999 15.603 13.8337 15.2196 13.9495 14.833C14.0528 14.4925 14.2025 14.1642 14.3019 13.8248C14.3939 13.5046 14.5481 13.2219 14.7379 12.9587C14.8695 12.7762 15.0163 12.602 15.1479 12.4194C15.2547 12.2695 15.3462 12.1112 15.4399 11.9608C15.2253 11.8096 15.2004 11.8125 15.0688 11.9951C14.9592 12.15 14.8559 12.3117 14.7361 12.4611C14.2967 13.0174 14.055 13.6659 13.8325 14.3216C13.6461 14.8648 13.5462 15.4257 13.4643 15.99C13.435 16.1857 13.387 16.3911 13.4678 16.5978C13.6322 16.6485 13.8005 16.6981 13.97 16.7516C13.9745 16.5587 13.9857 16.3894 13.988 16.2185C13.997 15.624 14.1365 15.0518 14.2991 14.4856L14.303 14.4844Z" fill="white"/>
<path d="M13.5287 15.171C13.5829 14.9128 13.6371 14.6545 13.7145 14.4024C13.7873 14.1643 13.9014 13.9356 13.9731 13.6936C14.1267 13.1854 14.4136 12.7538 14.7186 12.3256C14.8446 12.1532 14.9553 11.9723 15.0835 11.778C14.9874 11.7417 14.9146 11.7115 14.8378 11.6825C14.7745 11.7603 14.7028 11.8235 14.6576 11.9046C14.4147 12.3107 14.1809 12.7185 13.9443 13.1314C13.885 13.2378 13.8257 13.3443 13.7867 13.4619C13.6975 13.7175 13.6122 13.9719 13.5371 14.2319C13.4315 14.5944 13.318 14.9591 13.2316 15.3288C13.1452 15.6985 13.078 16.0754 13.1204 16.4762C13.1548 16.4919 13.1814 16.5098 13.2085 16.5148C13.2356 16.5198 13.2656 16.5197 13.3045 16.5213C13.3226 16.3458 13.335 16.1804 13.3615 16.0195C13.4078 15.7337 13.4592 15.4507 13.5196 15.1694L13.5287 15.171Z" fill="white"/>
<path d="M17.9237 12.9333C17.8717 12.8715 17.8062 12.8521 17.7237 12.863C17.5311 12.8928 17.3537 12.9608 17.221 13.1096C17.1854 13.1496 17.147 13.1947 17.1052 13.228C16.9764 13.3161 16.9454 13.4315 16.9663 13.5787C17.0121 13.8722 16.9799 14.1624 16.8958 14.4506C16.7297 15.0049 16.4428 15.4961 16.1254 15.9705C16.0559 16.0714 15.9786 16.1745 15.8831 16.2445C15.8052 16.3009 15.7752 16.3606 15.782 16.4438C15.7905 16.6075 15.812 16.7716 15.8306 16.9408C15.8747 17.0346 15.912 17.1346 15.9707 17.2199C16.082 17.3838 16.2391 17.4238 16.3594 17.3211C16.7988 16.9436 17.1603 16.5034 17.398 15.9753C17.5505 15.6419 17.6855 15.2923 17.7866 14.944C17.9125 14.5033 18.0102 14.0537 18.1028 13.6013C18.1525 13.3571 18.0869 13.129 17.9237 12.9333Z" fill="white"/>
<path d="M16.5444 14.0321C16.2857 14.5024 16.0491 14.9748 15.9119 15.4954L15.9085 15.5134C15.8599 15.7019 15.8074 15.8916 15.8351 16.122C15.8797 16.0837 15.9023 16.0729 15.9136 16.0526C16.0441 15.8661 16.1807 15.6864 16.2971 15.4954C16.4389 15.2588 16.5936 15.0228 16.6879 14.77C16.7913 14.4891 16.8381 14.1904 16.8901 13.8944C16.9087 13.7954 16.9059 13.6813 16.8364 13.5735C16.6963 13.7117 16.628 13.8761 16.5444 14.0321Z" fill="white"/>
<path d="M15.8486 15.3347C16.0231 14.7652 16.3038 14.2375 16.5997 13.7181C16.759 13.4382 16.9623 13.1924 17.1995 12.9753C17.3526 12.8376 17.5215 12.755 17.7288 12.7466C17.7666 12.7442 17.8073 12.7368 17.861 12.7299C17.67 12.6016 17.5164 12.5734 17.3656 12.6593C17.1278 12.8 16.9047 12.962 16.7273 13.1791C16.6449 13.2794 16.5675 13.3825 16.4952 13.4884C16.1976 13.9274 15.9304 14.383 15.7819 14.8941C15.6949 15.1873 15.6272 15.4878 15.5713 15.7848C15.4883 16.2259 15.5668 16.6632 15.6651 17.0948C15.6753 17.1302 15.6894 17.1645 15.7075 17.1976C15.7533 17.2824 15.8143 17.3457 15.9148 17.3679C15.8561 17.223 15.7877 17.0894 15.7499 16.9427C15.6007 16.3938 15.6944 15.8559 15.8514 15.3297L15.8486 15.3347Z" fill="white"/>
<path d="M9.27699 15.4644C9.22276 15.4247 9.16175 15.3911 9.09849 15.3497C9.12109 15.4283 9.14369 15.507 9.15951 15.5919C9.21147 15.5344 9.24141 15.5045 9.27699 15.4644Z" fill="white"/>
<path d="M9.75801 12.3416C9.85006 12.0809 9.93307 11.8187 10.0443 11.5653C10.1466 11.3401 10.2844 11.1344 10.399 10.9226C10.5165 10.7058 10.6402 10.4957 10.878 10.3848C10.9604 10.3441 10.9729 10.2681 10.9198 10.2025C10.874 10.1475 10.8232 10.1494 10.7486 10.2176C10.5673 10.3761 10.4148 10.5605 10.2838 10.7599C10.0748 11.0754 9.92965 11.4194 9.77039 11.759C9.52076 12.2905 9.34287 12.8483 9.23729 13.4194C9.143 13.9105 9.09502 14.414 9.04592 14.9135C9.03068 15.0541 9.06119 15.1901 9.09905 15.3367C9.23461 15.302 9.26059 15.2137 9.26454 15.1231C9.26171 15.0686 9.26509 15.0208 9.26848 14.973C9.29613 14.6372 9.29667 14.2964 9.35652 13.9684C9.45984 13.4193 9.56825 12.8729 9.75914 12.3455L9.75801 12.3416Z" fill="white"/>
<path d="M9.10244 15.3485C9.10244 15.3485 9.10018 15.3407 9.09905 15.3367C9.0951 15.3379 9.0951 15.3379 9.09114 15.339C9.09114 15.339 9.09736 15.3457 9.10131 15.3446L9.10244 15.3485Z" fill="white"/>
<path d="M8.85125 10.3923C8.90319 10.0368 9.0376 9.70013 9.18218 9.36906C9.26915 9.16525 9.32788 8.95252 9.3787 8.74206C9.3979 8.65991 9.39676 8.56656 9.29847 8.49262C9.24764 8.58386 9.17421 8.65605 9.14936 8.74834C9.06353 9.10511 8.88506 9.4374 8.75065 9.77406C8.68288 9.95532 8.59704 10.1333 8.57107 10.311C8.52929 10.6126 8.52367 10.9207 8.51805 11.2289C8.51128 11.3841 8.53615 11.5303 8.5949 11.6752C8.67513 11.865 8.81522 11.9951 8.95758 12.133C9.01294 12.1767 9.057 12.2407 9.14851 12.2314C9.20613 12.2234 9.21969 12.2706 9.22534 12.32C9.30893 12.2534 9.31344 12.15 9.34959 12.0374C9.32021 12.0245 9.29084 12.0117 9.25864 12.0039C9.22644 11.9961 9.19989 11.9782 9.17334 11.9603C9.10782 11.911 9.01856 11.8685 8.98015 11.7944C8.90784 11.6619 8.83552 11.5294 8.79484 11.3878C8.7632 11.2777 8.74964 11.1709 8.76544 11.0471C8.79819 10.8333 8.81286 10.6162 8.85125 10.3923Z" fill="white"/>
<path d="M7.31005 7.14369C7.37893 6.69813 7.48622 6.26708 7.6579 5.85158C7.73358 5.66805 7.88721 5.54726 8.01034 5.4097C8.03745 5.38488 8.07699 5.37352 8.11088 5.3723C8.31762 5.34696 8.50177 5.36218 8.66446 5.51129C8.78986 5.62002 8.84636 5.75706 8.92884 5.89516C9.09719 6.15335 9.165 6.44894 9.23845 6.73439C9.28027 6.90972 9.28819 7.08626 9.2882 7.26508C9.28935 7.41803 9.25885 7.58007 9.25209 7.73529C9.23516 7.94453 9.17756 8.13139 9.07138 8.29814C8.94599 8.48745 8.81496 8.68689 8.55739 8.74386C8.36534 8.79053 8.24107 8.71553 8.21055 8.51993C8.17099 8.29286 8.51893 8.07368 8.7155 8.16196C8.77651 8.19552 8.83526 8.22122 8.90418 8.25251C8.91434 8.25811 8.93242 8.26143 8.9584 8.26248C8.98099 8.22193 9.00359 8.18137 9.02166 8.12509C8.96178 8.06566 8.90642 8.02195 8.85896 7.97598C8.7087 7.84033 8.52794 7.80711 8.34041 7.8695C8.22632 7.91932 8.08171 7.95235 8.00603 8.07628C7.83547 8.34669 7.88973 8.7739 8.13263 8.99363C8.17218 9.04188 8.25917 9.0765 8.30662 9.06286C8.47494 9.02302 8.65118 8.9809 8.79577 8.88826C9.04204 8.73235 9.25215 8.51018 9.37866 8.2354C9.61699 7.72412 9.68699 7.19308 9.5446 6.63791C9.46437 6.32886 9.34685 6.03904 9.21578 5.76163C9.11522 5.5606 9.00901 5.36971 8.85197 5.21047C8.67685 5.04789 8.48592 4.94947 8.23399 4.99631C7.85667 5.05363 7.62057 5.27474 7.45792 5.60248C7.32689 5.86153 7.24445 6.14068 7.19815 6.42648C7.14508 6.74829 7.0841 7.07236 7.03329 7.40203C6.99941 7.64168 6.99153 7.88238 6.94523 8.10857C6.87069 8.44506 6.77356 8.76249 6.68886 9.09339C6.61093 9.38827 6.48216 9.65518 6.24155 9.86056C6.22008 9.87525 6.20314 9.90566 6.18055 9.94621C6.22348 9.97646 6.2585 10.009 6.29353 10.0415L6.30596 10.0549C6.65389 9.77615 6.8719 9.43251 6.96789 9.02173C7.04469 8.69311 7.0955 8.36344 7.16213 8.02922C7.21407 7.73329 7.26601 7.43735 7.31005 7.14369Z" fill="white"/>
<path d="M5.81172 10.2268C5.66034 10.3256 5.51518 10.4014 5.39148 10.4625C5.22598 10.527 5.06048 10.5916 4.89498 10.6562C4.70124 10.7119 4.53969 10.7157 4.41655 10.7042C4.34537 10.6949 4.24765 10.6676 4.05107 10.6091C3.83134 10.5445 3.72175 10.5207 3.59409 10.4637C3.43818 10.3978 3.28228 10.3319 3.12524 10.262L3.06482 10.4838C3.18909 10.529 3.28907 10.5641 3.36364 10.5853C3.42916 10.6047 3.98557 10.7983 4.03527 10.8223C4.2584 10.9285 4.39002 10.9248 4.53067 10.9227C4.61653 10.9235 4.82326 10.8982 5.22035 10.7458C5.40957 10.6744 5.56716 10.6121 5.7705 10.4855C5.94842 10.3748 6.08737 10.2625 6.18622 10.1745C6.22575 10.1333 6.26529 10.0922 6.30483 10.051L6.17942 9.94228C6.07662 10.0314 5.95405 10.1262 5.81059 10.2228L5.81172 10.2268Z" fill="white"/>
</g>
</g>
</svg>
