<svg width="48" height="48" viewBox="0 0 48 48" fill="none" xmlns="http://www.w3.org/2000/svg">
<g id="send">
<circle id="Ellipse 8" cx="24" cy="24" r="24" fill="#4AA3DF"/>
<g id="Layer 2">
<path id="Vector" d="M12.3036 17.0805C12.5035 16.917 12.9463 16.7372 13.8083 16.6435L13.8078 16.6427C15.9075 16.4181 20.9104 16.2079 25.6122 16.4765C27.9639 16.6108 30.2183 16.8646 31.9881 17.2879C32.8734 17.4996 33.6189 17.7492 34.1886 18.0378C34.7659 18.3302 35.111 18.6363 35.2708 18.9311C35.6418 19.6165 35.5533 20.5632 35.004 21.7695C34.462 22.9597 33.5239 24.2846 32.4112 25.6262C31.3025 26.963 30.0409 28.2921 28.8705 29.4941C27.9989 30.3894 27.1694 31.2224 26.5014 31.9261L25.8919 32.5847L25.891 32.5852C24.6519 33.9703 23.4254 35.3172 22.0156 36.4378L21.7313 36.6594L21.7232 36.6649C21.598 36.7638 21.4606 36.8232 21.3433 36.8328C21.2453 36.8409 21.1371 36.8184 21.0147 36.6976C20.8774 36.5621 20.7055 36.2832 20.5745 35.741C20.4608 35.2702 20.3842 34.6282 20.3765 33.7671L20.3777 33.3856C20.4006 31.8615 20.5271 29.9344 20.6546 28.4162C20.7042 27.8255 20.7542 27.2991 20.7975 26.8852L21.2155 27.2697L20.9279 25.7785C20.9255 25.7657 20.9118 25.6889 20.8634 25.608C20.8453 25.5779 20.8013 25.5113 20.7203 25.4545C20.7188 25.4531 20.7174 25.4517 20.7158 25.4503C20.6764 25.414 20.6179 25.3605 20.5438 25.2924C20.3955 25.1563 20.1823 24.9612 19.9227 24.7236C19.4029 24.2481 18.6961 23.6032 17.9485 22.9273C16.6485 21.7519 15.204 20.4624 14.4144 19.8145L14.1188 19.5781C13.6342 19.2073 13.1832 18.8206 12.8327 18.4476C12.4727 18.0645 12.2606 17.7392 12.189 17.4946C12.1559 17.3812 12.1589 17.3069 12.1722 17.2583C12.1844 17.2137 12.2149 17.1532 12.3036 17.0805ZM22.0952 25.6352C22.0911 25.6745 22.086 25.7211 22.0805 25.7742C22.061 25.9627 22.0335 26.2349 21.9994 26.5699C21.9311 27.2403 21.8377 28.1629 21.7406 29.1709C21.5467 31.1828 21.3338 33.5489 21.2603 34.9278L21.1837 36.3596L22.1345 35.2851C25.4373 31.5501 29.0931 27.9785 32.189 23.9686C32.7565 23.2389 33.263 22.3572 33.6211 21.6664C33.8012 21.3192 33.9462 21.0145 34.0458 20.7935C34.0955 20.6835 34.1356 20.5916 34.1629 20.5236C34.1761 20.4908 34.1887 20.4572 34.1987 20.4276C34.2029 20.4151 34.2117 20.3904 34.2184 20.3614C34.221 20.3499 34.2288 20.3146 34.2311 20.2701C34.2322 20.2494 34.2337 20.2008 34.2212 20.1411C34.2115 20.0944 34.173 19.9415 34.0176 19.8327L33.7762 19.6636L33.5121 19.7932L31.9965 20.526C30.3431 21.3203 28.3426 22.2681 26.5953 23.0924C25.4311 23.6416 24.3798 24.1355 23.6197 24.4923C23.2396 24.6707 22.932 24.8145 22.7197 24.914C22.6136 24.9637 22.5311 25.0024 22.4753 25.0286C22.4477 25.0415 22.4267 25.0515 22.4124 25.0581C22.4053 25.0615 22.3993 25.0644 22.3957 25.0661L22.3905 25.0689L21.9102 25.2934L22.0952 25.6352ZM14.6315 18.7364C15.8046 19.6919 17.1127 20.5426 18.2978 21.4023C19.5022 22.2759 20.6205 23.1858 21.523 24.3137L21.5251 24.3114C21.6188 24.4287 21.7711 24.5658 22.0031 24.5912C22.2024 24.613 22.3722 24.5347 22.4369 24.5063L22.4373 24.5072C24.2083 23.7364 25.9259 22.874 27.6261 22.0058C29.3303 21.1355 31.0141 20.261 32.7351 19.4554L33.7655 18.9731L32.7136 18.5398C32.5916 18.4895 32.4242 18.4559 32.2652 18.4294C32.0914 18.4004 31.8747 18.3729 31.6245 18.3454C31.1226 18.2903 30.4644 18.2352 29.7031 18.1829C28.1793 18.0783 26.2228 17.9814 24.229 17.9071C22.2349 17.8328 20.1995 17.7809 18.5181 17.7661C16.8532 17.7516 15.4949 17.7725 14.8823 17.8522L13.7302 18.0028L14.6315 18.7364Z" fill="white" stroke="white"/>
</g>
</g>
</svg>
