<?xml version="1.0" encoding="UTF-8"?>
<svg id="b" data-name="Layer 2" xmlns="http://www.w3.org/2000/svg" width="22.62" height="16.83" viewBox="0 0 22.62 16.83">
  <defs>
    <style>
      .d {
        fill-rule: evenodd;
      }

      .d, .e {
        stroke-width: 0px;
      }
    </style>
  </defs>
  <g id="c" data-name="Layer 1">
    <g>
      <path class="e" d="M3.81,11.89c-.01-.06-.03-.13-.04-.2-.07-.53-.23-1.04-.45-1.53-.17-.4-.35-.8-.52-1.19-.27-.64-.64-1.22-1.08-1.76-.2-.24-.41-.47-.63-.72.38-.2.76-.41,1.18-.63.16.19.32.36.47.54.21.26.41.52.61.78.41.56.73,1.17,1,1.81.23.54.37,1.11.48,1.68.02.1.02.19.03.29,0,.04-.01.08,0,.11.02.04.07.06.11.09.02-.03.07-.07.06-.1,0-.1-.03-.19-.04-.29-.1-.52-.22-1.04-.41-1.54-.37-.97-.85-1.87-1.54-2.65-.21-.25-.41-.51-.63-.78h0c.06-.04.13-.08.2-.12.07.07.15.13.21.2.35.45.71.89.99,1.39.1.18.21.35.33.51.22.31.37.65.47,1.01.16.55.32,1.09.48,1.64.03.12.05.25.07.38,0,.04,0,.08.02.11.03.03.07.05.11.07.02-.04.06-.08.05-.11-.11-.43-.22-.87-.34-1.3-.07-.25-.16-.48-.23-.73-.16-.6-.5-1.1-.82-1.62-.32-.53-.71-1-1.08-1.49-.02-.03-.04-.06-.08-.12.07-.04.14-.08.22-.13.14.17.27.34.4.5.44.55.79,1.14,1.15,1.74.18.3.32.63.41.97.19.74.38,1.48.57,2.22-.54.3-1.08.59-1.64.89l-.11.06Z"/>
      <path class="e" d="M5.73,10.87c-.04-.08-.09-.15-.11-.22-.11-.41-.22-.82-.33-1.24-.08-.33-.16-.66-.25-.98-.11-.39-.34-.73-.54-1.08-.38-.66-.85-1.27-1.33-1.9.11-.06.19-.11.3-.18,1.35,1.6,2.3,3.36,2.47,5.49-.06.03-.13.07-.21.11Z"/>
      <path class="e" d="M7.63,9.96c-.12-.41-.24-.78-.34-1.17-.17-.64-.39-1.27-.69-1.87-.18-.36-.32-.74-.57-1.06-.28-.36-.57-.71-.85-1.07-.09-.11-.17-.23-.32-.27h0c.05.17.18.29.29.41.52.57.96,1.19,1.27,1.9.22.49.41,1,.6,1.5.09.24.14.49.21.73.04.13.09.26.12.39.04.19.07.38.11.58-.44.21-.85.48-1.35.63-.03-.14-.07-.27-.09-.4-.1-.61-.25-1.2-.44-1.79-.14-.42-.35-.81-.55-1.21-.23-.45-.52-.86-.83-1.25-.2-.26-.38-.53-.57-.8.18-.18.19-.18.35,0,.35.4.64.85.91,1.31.15.26.33.5.46.77.2.39.37.8.49,1.23.17.61.34,1.21.42,1.84,0,.03.06.06.1.09.02-.04.05-.09.05-.12-.16-.78-.31-1.56-.58-2.31-.18-.5-.42-.98-.72-1.42-.21-.32-.42-.64-.64-.95-.1-.14-.21-.27-.32-.41-.05-.07-.1-.14-.17-.24.08-.05.15-.1.22-.13.17-.08.34-.16.5-.25.05-.03.09-.07.14-.1h0s0,0,0,0c0,0,0,0,0,0,.19-.09.39-.19.6-.29.06.05.13.09.18.15.18.23.36.46.53.69.13.18.27.36.38.56.29.52.58,1.04.85,1.58.16.33.26.68.39,1.03.02.04.02.09.04.13.16.37.24.76.32,1.15v.02s.02.04.04.07c.05-.02.09-.03.14-.06-.3-.98-.57-1.95-1.03-2.85-.46-.9-1-1.75-1.68-2.53.11-.07.18-.13.27-.19.22.18.36.41.51.63.19.29.36.59.57.86.38.51.65,1.08.87,1.67.17.44.29.9.46,1.34.13.33.22.67.25,1.05-.29.14-.58.29-.89.44Z"/>
      <path class="e" d="M8.68,9.41c-.03-.07-.06-.13-.08-.2-.11-.35-.19-.71-.32-1.05-.2-.56-.4-1.13-.63-1.68-.18-.43-.42-.82-.7-1.2-.32-.43-.6-.89-.92-1.36.08-.05.14-.09.23-.14.06.08.13.15.18.22.27.4.54.79.79,1.2.22.37.4.77.61,1.15.3.54.5,1.12.68,1.71.11.38.19.77.29,1.15.03.12,0,.19-.14.21Z"/>
      <path class="e" d="M10.2,8.65c-.3.15-.6.3-.9.46-.1.05-.21.1-.33.16-.07-.3-.12-.57-.2-.83-.16-.52-.31-1.05-.51-1.55-.16-.4-.4-.77-.58-1.16-.3-.64-.74-1.19-1.11-1.79-.04-.07-.08-.14-.13-.24.16-.08.29-.16.42-.22.22-.1.44-.19.66-.29.11-.05.2-.04.28.05.25.29.51.57.75.87.42.55.76,1.15,1.03,1.79.21.49.42.99.63,1.49.13.31.17.63.18.96,0,.14-.05.25-.18.31Z"/>
      <path class="e" d="M2.96,12.46s-.04,0-.07,0c-.24,0-.45-.09-.64-.23-.45-.33-.82-.72-1.1-1.2-.1-.18-.19-.37-.29-.56-.33-.64-.58-1.31-.77-2.01-.09-.34-.11-.68-.08-1.02.02-.2.11-.37.25-.51.07-.07.16-.09.26-.08.27,0,.46.16.63.34.04.04.09.13.08.17-.06.25,0,.49.03.73.08.61.29,1.19.58,1.73.18.34.42.65.7.93.04.04.06.08.1.12.11.11.2.23.37.27.11.02.19.1.2.23.03.21.09.41.11.62.03.4-.03.41-.38.45Z"/>
      <path class="e" d="M1.32,7.48c.44.36,1.76,2.83,1.76,3.56-1.13-.92-1.63-2.12-1.76-3.56Z"/>
      <path class="e" d="M3.52,12.07c-.04-.22-.08-.41-.12-.6-.24-1.13-.71-2.17-1.3-3.16-.23-.38-.46-.75-.75-1.09-.13-.15-.29-.28-.44-.41-.04-.03-.08-.06-.12-.09.12-.12.16-.13.27-.02.14.13.28.27.4.42.19.24.37.49.55.74.31.43.54.92.75,1.41.18.43.39.86.56,1.3.15.38.27.78.3,1.19,0,.1.06.22-.1.32Z"/>
      <path class="e" d="M10.36,6.95c.09.16.15.32.19.5.03.15.08.3.11.46.03.19.06.38.07.58,0,.12,0,.12-.12.21-.1-.04-.09-.13-.08-.21.06-.59-.15-1.12-.38-1.64-.27-.6-.52-1.21-.78-1.81,0-.01.01-.02.02-.03.03.02.07.04.09.06.11.24.22.49.34.73.18.38.36.77.56,1.15Z"/>
      <path class="e" d="M8.82,4.16c-.3-.43-.74-.75-1.01-1.21.46.3.71.77,1.01,1.21Z"/>
      <path class="e" d="M15.56,14.63l-.16-.1c-.28-.18-.53-.34-.78-.51.02-.14.05-.26.06-.39.07-.46.25-.89.44-1.31.23-.52.53-1.01.88-1.45.24-.3.52-.56.79-.82.3-.3.62-.59.93-.88.11-.1.24-.18.37-.29.36.23.72.46,1.1.7-.25.25-.48.48-.72.71-.28.26-.57.51-.83.79-.2.21-.38.43-.53.67-.34.54-.67,1.08-.98,1.64-.18.31-.3.65-.45.98-.04.08-.08.16-.13.26Z"/>
      <path class="e" d="M13.36,13.16c-.03-.3.07-.57.19-.81.23-.47.47-.94.73-1.39.24-.41.5-.79.78-1.18.15-.21.33-.41.51-.6.21-.23.42-.46.65-.67.18-.18.39-.33.59-.5.07.04.12.07.17.09,0,.03,0,.05-.02.06-.56.49-1.08,1.01-1.53,1.6-.44.59-.88,1.19-1.27,1.82-.27.44-.54.9-.67,1.41,0,.04-.04.08-.03.11,0,.03.04.07.08.09.02,0,.07-.03.08-.06.07-.6.42-1.07.71-1.56.3-.52.65-1,1-1.49.25-.34.51-.67.8-.97.28-.29.56-.6.91-.83.09-.06.16-.08.23.05-.04.05-.09.11-.14.16-.66.61-1.29,1.25-1.81,1.98-.17.23-.34.46-.5.69-.35.51-.59,1.07-.82,1.64-.08.2-.16.4-.25.63-.14-.1-.27-.19-.39-.27Z"/>
      <path class="e" d="M14.15,13.71c-.1-.07-.19-.13-.27-.19.17-.71.48-1.35.82-1.97.24-.45.55-.85.88-1.24l.03-.04c.3-.37.61-.74.95-1.06.28-.27.5-.6.89-.78.07.05.14.09.23.15-.13.11-.26.2-.37.3-.14.12-.29.23-.43.36-.26.26-.51.53-.76.79-.42.44-.77.93-1.09,1.45-.12.19-.19.41-.27.61-.16.39-.32.79-.47,1.19-.05.13-.08.27-.13.44Z"/>
      <path class="e" d="M13.2,13.06c-.11-.08-.21-.15-.31-.22-.3-.19-.61-.38-.91-.57-.21-.13-.25-.24-.18-.47h0c.16-.5.32-1,.58-1.46.24-.41.42-.86.71-1.24.2-.26.37-.54.55-.81.28-.4.67-.7,1.01-1.05.09-.09.21-.16.33-.23.19-.11.37-.09.56.06.3.23.62.44.93.66.07.05.14.11.22.18-.16.15-.32.29-.47.43-.48.47-.99.92-1.36,1.49-.29.44-.6.88-.86,1.34-.25.46-.46.94-.67,1.42-.06.14-.09.3-.14.47Z"/>
      <path class="e" d="M14.48,13.9c-.07-.03-.11-.05-.16-.07-.01-.28.08-.54.17-.78.15-.39.31-.76.46-1.15.13-.31.31-.6.5-.88.43-.65,1.01-1.16,1.54-1.71.2-.21.44-.38.67-.55.14-.1.15-.1.31.04h0c-.05.06-.09.12-.15.16-.46.34-.87.74-1.26,1.15-.28.29-.57.58-.81.9-.22.3-.42.62-.58.96-.2.42-.36.87-.53,1.31-.05.13-.07.27-.11.41-.02.07-.04.14-.07.22Z"/>
      <path class="e" d="M18.36,16.03c-.02.14-.02.28-.03.41-.02,0-.03.01-.05.02-.05-.13-.15-.16-.25-.22-.42-.25-.83-.51-1.24-.77.07-.55.26-1.05.48-1.52.15-.32.32-.62.49-.93.24-.44.61-.78.95-1.13.27-.29.6-.52.92-.75h.02c.13-.11.25-.22.38-.33h0c.09-.07.18-.14.27-.19.14-.08.17-.06.27.11-.23.15-.45.32-.68.46-.35.22-.64.49-.92.78-.23.23-.45.46-.64.72-.2.26-.38.54-.55.82-.18.29-.34.6-.49.91-.14.3-.17.62-.27.92-.04.11.03.14.14.16.01-.11.03-.2.04-.3.07-.52.27-.98.54-1.41.18-.28.35-.56.53-.83.35-.54.81-.98,1.3-1.39.28-.23.59-.43.89-.64.07-.05.16-.07.24-.11.36.26.71.51,1.06.76h-.02c-.06.03-.12.05-.19.08-.48.17-.87.49-1.23.84-.11.11-.23.21-.34.32-.57.56-.98,1.22-1.32,1.94-.19.41-.25.85-.31,1.28Z"/>
      <path class="e" d="M16.1,14.99c-.02-.27.1-.49.2-.71.28-.64.59-1.26.99-1.84.48-.69.98-1.38,1.68-1.88.19-.14.36-.29.54-.44.22-.17.25-.17.44.08-.16.15-.32.3-.5.44-.22.17-.45.32-.66.5-.31.25-.59.53-.8.87-.23.37-.51.7-.75,1.07-.27.42-.55.82-.72,1.29-.06.17-.11.34-.17.51-.02.07-.08.16.04.18.1.02.1-.09.12-.16.04-.15.06-.31.11-.46.11-.38.34-.7.54-1.03.25-.41.54-.79.79-1.2.26-.4.59-.74.96-1.03.38-.31.78-.6,1.18-.91.06.05.12.1.2.16-.25.2-.47.42-.72.58-.45.3-.86.64-1.22,1.05-.2.23-.42.46-.58.71-.38.61-.74,1.24-.95,1.93-.06.2-.13.4-.2.62-.18-.12-.36-.23-.54-.35Z"/>
      <path class="e" d="M15.83,14.81s-.06-.05-.09-.08c.08-.49.29-.9.51-1.31.22-.41.48-.8.72-1.19.17-.28.36-.55.55-.82.09-.12.19-.23.3-.33.41-.4.83-.8,1.24-1.2.08-.08.18-.13.28-.2.08.06.15.12.25.19-.22.18-.41.36-.61.52-.5.4-.98.81-1.33,1.35-.17.26-.38.49-.54.74-.17.27-.33.55-.48.84-.16.31-.32.63-.47.95-.09.18-.15.37-.24.57-.05-.02-.08-.02-.11-.04Z"/>
      <path class="e" d="M22.51,13.03c-.26.5-.52.99-.82,1.47-.24.38-.51.74-.8,1.08-.46.54-1.02.94-1.67,1.23-.17.08-.34-.02-.42-.25-.04-.12-.05-.25-.07-.38.04-.2.07-.4.11-.6.02-.1.08-.16.19-.2.14-.05.26-.14.37-.24.53-.45,1.03-.93,1.41-1.52.2-.31.33-.64.38-1,.02-.18.1-.31.28-.37.06-.02.12-.06.18-.1.21-.13.43-.15.67-.12.1.01.17.06.21.15.12.28.12.57-.02.84Z"/>
      <path class="e" d="M21,12.97c-.16.33-.32.66-.53.96-.2.27-.46.49-.7.72-.2.19-.42.35-.64.53-.02.02-.05.02-.12.05.05-.28.17-.49.29-.69v-.02c.35-.56.78-1.04,1.24-1.51.15-.15.29-.32.5-.44.05.15.01.28-.04.39Z"/>
      <path class="e" d="M18.51,16.45s-.02-.09-.01-.13c.03-.54.08-1.08.33-1.57.17-.33.35-.66.55-.98.35-.55.81-.99,1.31-1.41.12-.1.24-.2.37-.29.28-.19.6-.31.92-.4.2-.05.37.03.56.25-.07,0-.11-.01-.16-.02-.24-.06-.47-.02-.7.09-.35.18-.67.4-.95.67-.52.51-1.02,1.03-1.42,1.65-.36.56-.65,1.16-.66,1.86,0,.18.03.36.05.55-.11-.06-.16-.16-.18-.27Z"/>
      <path class="e" d="M15.28,6.62c.03.09-.01.18-.12.2-.31.05-.53.25-.74.47-.21.21-.44.41-.63.63-.22.26-.4.54-.6.82-.39.55-.71,1.16-1.01,1.77-.18.36-.3.76-.44,1.15-.02.05-.04.11-.06.17-.03.11-.08.21-.24.21h-.02c0-.19.02-.36.08-.52.23-.57.45-1.15.73-1.69.32-.64.71-1.23,1.18-1.77.3-.35.59-.7.93-1,.23-.19.47-.36.73-.48.11-.05.17-.04.21.04Z"/>
      <path class="e" d="M12.43,8.82c.07.01.07.08.06.14.12-.05.16-.18.24-.29-.06-.05-.13-.09-.18-.15-.07-.08-.16-.16-.18-.26h0c-.07-.31-.13-.63,0-.95.1-.25.2-.5.32-.74.19-.4.45-.75.74-1.09.17-.2.3-.44.44-.67.05-.08.08-.2-.01-.31-.09.08-.2.15-.26.25-.22.39-.54.72-.81,1.07-.14.18-.3.36-.39.57-.15.34-.26.7-.37,1.06-.06.18-.08.36-.05.55.03.25.15.45.27.66.04.08.08.16.18.18Z"/>
      <path class="e" d="M13.06,4.78c-.2.06-.41.04-.62.04-.07,0-.15-.07-.19-.14-.2-.34-.12-.86.16-1.12.13-.12.31-.11.47-.13.24-.02.44.08.57.3.04.07.09.14.14.23-.04.05-.08.1-.12.14-.03-.02-.05-.02-.06-.04-.06-.05-.12-.11-.19-.16-.2-.17-.69-.04-.71.24-.03.24.09.37.33.39.32.01.54-.17.75-.36.18-.16.31-.36.39-.59.06-.18.15-.36.21-.54.06-.21.11-.42.12-.64.01-.36.03-.73-.08-1.09-.05-.19-.08-.37-.18-.54-.14-.23-.35-.31-.59-.35-.04,0-.1,0-.13.02-.2.12-.41.2-.56.4-.34.43-.61.9-.84,1.4-.15.33-.31.66-.48.99-.18.37-.36.74-.56,1.1-.25.45-.62.78-1.12.99v-.02c-.04-.05-.07-.1-.11-.15.04-.03.06-.07.1-.08.35-.16.59-.42.78-.75.21-.36.43-.7.63-1.06.14-.26.22-.54.35-.8.17-.37.35-.73.52-1.09.15-.32.33-.62.57-.88.3-.33.66-.51,1.12-.45.31.04.5.21.64.47.13.24.2.5.24.77.06.38.11.75.09,1.14-.02.7-.28,1.3-.73,1.83-.24.28-.55.47-.9.57Z"/>
      <path class="d" d="M7.73,9.07c-.2-.57-.4-1.14-.6-1.72-.24-.67-.59-1.27-1.02-1.84-.12-.16-.25-.3-.37-.45-.15-.19-.3-.39-.46-.58-.02-.03-.07-.04-.11-.05-.05.1.01.14.05.19.31.4.62.79.92,1.19.47.64.79,1.37,1.06,2.12.11.31.21.62.31.94.06.17.11.34.16.51.04.13.08.26.12.4.11-.02.13-.07.1-.15-.06-.18-.12-.37-.18-.55Z"/>
    </g>
  </g>
</svg>