<?xml version="1.0" encoding="UTF-8"?>
<svg id="b" data-name="Layer 2" xmlns="http://www.w3.org/2000/svg" width="39.04" height="9.07" viewBox="0 0 39.04 9.07">
  <defs>
    <style>
      .d {
        stroke-width: 0px;
      }
    </style>
  </defs>
  <g id="c" data-name="Layer 1">
    <g>
      <path class="d" d="M6.58.48H0v3.04c.42-.02.75-.03.97-.04s.38-.01.49-.01h.27c.21,0,.37,0,.5.01s.22.02.28.04c.16.04.25.11.28.2.03.1.04.24.04.43v1.1c0,.4,0,.81-.01,1.23s-.01.83-.02,1.24c0,.41-.01.79-.03,1.15h1.03c0-.36-.02-.74-.02-1.15,0-.41-.02-.82-.02-1.24s-.01-.83-.01-1.23v-1.1c0-.19.01-.34.04-.43.03-.1.12-.16.28-.2.06-.02.16-.03.28-.04s.29-.01.5-.01h.27c.11,0,.27,0,.5.01.22,0,.54.02.96.04V.48Z"/>
      <path class="d" d="M11.78,5.13c0-.31,0-.62,0-.93s0-.59.01-.83c0-.24,0-.4,0-.49h-.86c.02.14.03.29.04.43,0,.14.01.25.01.34,0,.1,0,.18-.01.24,0,.06-.04.08-.11.08-.04,0-.09-.03-.14-.1s-.14-.16-.24-.3c-.09-.13-.21-.25-.35-.37-.15-.12-.34-.22-.58-.3-.24-.08-.55-.12-.94-.12-.87,0-1.51.26-1.92.79-.41.52-.61,1.31-.61,2.37s.2,1.83.61,2.31c.41.48,1.05.73,1.92.73.38,0,.7-.04.94-.12.24-.08.43-.18.58-.31.15-.12.27-.25.35-.37.1-.14.18-.24.24-.3.06-.06.1-.1.14-.1.06,0,.1.03.11.08,0,.06.01.14.01.24,0,.09,0,.2-.01.34,0,.14-.02.28-.04.43h.86c0-.09,0-.25,0-.47,0-.23,0-.49-.01-.79s0-.59,0-.89v-1.6ZM10.54,6.57c-.32.12-.86.17-1.62.17s-1.26-.06-1.6-.17c-.34-.12-.51-.33-.51-.63s.17-.52.51-.64c.34-.12.87-.19,1.6-.19s1.3.06,1.62.19c.32.12.48.34.48.64s-.16.51-.48.63Z"/>
      <path class="d" d="M15.43,6.98c-.18,0-.34-.01-.46-.04s-.21-.06-.26-.1c-.03-.02-.06-.06-.08-.11-.02-.05-.04-.11-.05-.19-.01-.08-.02-.19-.03-.32,0-.13-.01-.3-.01-.5v-2.65c0-.24,0-.49,0-.75s0-.57.01-.94c0-.37,0-.83.02-1.39h-2.45v2.51c.15-.02.29-.03.42-.03s.27,0,.43,0c.18,0,.32.01.44.03.12.02.2.05.25.09.03.02.06.06.08.11.02.05.04.12.05.22.01.09.02.22.03.37,0,.16.01.35.01.59v1.72c0,.24,0,.43-.01.58,0,.15-.02.27-.03.36s-.03.16-.05.2c-.02.05-.05.08-.08.11-.05.04-.14.07-.26.1s-.3.04-.53.04c-.18,0-.33,0-.47-.01-.14,0-.28-.02-.41-.02v1.93h4.24v-1.93c-.13,0-.25.02-.37.02-.12,0-.26.01-.42.01Z"/>
      <path class="d" d="M19.98,6.9c-.22,0-.42-.03-.58-.08-.16-.06-.29-.13-.39-.22-.1-.09-.17-.18-.21-.26.17,0,.36,0,.59-.02.22-.02.44-.05.65-.1s.39-.13.53-.23c.13-.1.25-.23.35-.4.11-.17.21-.38.29-.64s.17-.55.23-.89c.07-.34.12-.73.16-1.17h-.79v.47c0,.06,0,.13-.01.23,0,.11-.02.21-.05.29-.02.08-.07.15-.13.2-.06.06-.15.1-.28.13-.13.03-.3.05-.51.05s-.48.01-.81.01c-.49,0-.84-.01-1.06-.04-.22-.02-.37-.07-.45-.14-.06-.06-.09-.12-.1-.2-.01-.08-.02-.18-.02-.3v-.37c0-.15,0-.35,0-.61s0-.59.01-1.01c0-.42,0-.95.02-1.6h-.86c0,.82.01,1.48.02,2,0,.52,0,.92.01,1.22,0,.3,0,.52,0,.67v1.1c0,.15,0,.38,0,.67,0,.3,0,.7-.01,1.22s-.01,1.18-.02,2h.86c0-.08-.01-.18-.02-.31,0-.13-.01-.26-.02-.4,0-.14-.01-.27-.02-.4,0-.13,0-.23,0-.31,0-.09,0-.2,0-.35s.02-.27.05-.37c.05-.18.15-.29.32-.33s.31-.05.44-.05c0,.5.08.95.25,1.37s.42.75.76.99c.34.24.76.37,1.27.37.1,0,.23,0,.4-.02s.33-.04.5-.07c.16-.03.28-.07.35-.11v-2.53c-.15.15-.39.28-.72.4-.33.11-.67.17-1.03.17Z"/>
      <path class="d" d="M29.41,5.13c0-.31,0-.62,0-.93s0-.59.01-.83c0-.24,0-.4,0-.49h-.86c.02.14.03.29.04.43,0,.14.01.25.01.34,0,.1,0,.18-.01.24,0,.06-.04.08-.11.08-.04,0-.09-.03-.14-.1s-.14-.16-.24-.3c-.09-.13-.21-.25-.35-.37-.15-.12-.34-.22-.58-.3-.24-.08-.55-.12-.94-.12-.87,0-1.51.26-1.92.79-.41.52-.61,1.31-.61,2.37s.2,1.83.61,2.31c.41.48,1.05.73,1.92.73.38,0,.7-.04.94-.12.24-.08.43-.18.58-.31.15-.12.27-.25.35-.37.1-.14.18-.24.24-.3.06-.06.1-.1.14-.1.06,0,.1.03.11.08,0,.06.01.14.01.24,0,.09,0,.2-.01.34,0,.14-.02.28-.04.43h.86c0-.09,0-.25,0-.47,0-.23,0-.49-.01-.79s0-.59,0-.89v-1.6ZM28.16,6.57c-.32.12-.86.17-1.62.17s-1.26-.06-1.6-.17c-.34-.12-.51-.33-.51-.63s.17-.52.51-.64c.34-.12.87-.19,1.6-.19s1.3.06,1.62.19c.32.12.48.34.48.64s-.16.51-.48.63Z"/>
      <path class="d" d="M38.23,7.54c0,.16-.01.32-.02.49s-.01.32-.02.47c0,.15,0,.28-.02.39h.86c0-.15-.01-.33-.02-.53,0-.2,0-.42-.01-.67,0-.25,0-.52-.01-.82,0-.3,0-.62,0-.96v-1.09c0-.47-.09-.86-.27-1.16-.18-.3-.42-.52-.72-.66-.3-.14-.63-.21-1-.21-.3,0-.57.05-.82.16-.25.11-.47.24-.65.4-.18.16-.32.31-.42.46-.11.18-.19.29-.23.35-.04.06-.08.08-.12.08-.03,0-.06-.02-.09-.07-.03-.05-.05-.1-.08-.17-.09-.25-.21-.46-.36-.64-.15-.18-.34-.32-.56-.42-.22-.1-.49-.15-.8-.15-.33,0-.61.05-.83.15s-.41.22-.56.35c-.14.13-.26.25-.34.37-.1.15-.19.26-.25.33s-.12.1-.16.1c-.06,0-.09-.03-.1-.1-.01-.07-.02-.16-.02-.27,0-.1,0-.23.02-.38.01-.15.02-.3.03-.45h-.86c0,.09,0,.25,0,.49,0,.24,0,.52.01.83,0,.31,0,.62,0,.93v1.45c0,.23,0,.47,0,.71,0,.24,0,.47,0,.68s0,.4,0,.56c0,.16,0,.28,0,.35h.86c0-.14-.02-.3-.02-.5,0-.2-.01-.4-.02-.61s0-.4,0-.59v-.46c0-.33.03-.56.1-.71.07-.14.22-.24.47-.28s.63-.06,1.15-.06.91.02,1.16.06.4.13.47.28.1.38.1.71v.35c0,.14,0,.29,0,.45,0,.16-.01.32-.02.49s-.01.32-.02.47c0,.15,0,.28-.02.39h.86c0-.14-.02-.3-.02-.5,0-.2-.01-.4-.02-.61,0-.21,0-.4,0-.59v-.46c0-.33.03-.56.1-.71s.22-.24.47-.28.63-.06,1.15-.06.91.02,1.15.06c.24.04.39.13.46.28s.1.38.1.71v.35c0,.14,0,.29,0,.45Z"/>
      <path class="d" d="M22.95,1.65c-.23,0-.41.04-.53.12-.13.08-.19.2-.19.36s.05.28.15.36c.1.08.25.12.45.12.17,0,.28,0,.35.01.07,0,.1.04.1.1,0,.08-.07.13-.2.15-.13.03-.28.04-.43.04-.09,0-.17,0-.24-.01s-.14-.02-.19-.02v.72c.5,0,.88-.1,1.12-.31.24-.21.36-.49.36-.85,0-.22-.06-.41-.17-.56-.12-.15-.31-.23-.59-.23Z"/>
    </g>
  </g>
</svg>